<svg data-v-423bf9ae="" xmlns="http://www.w3.org/2000/svg" viewBox="0 0 189.22585981498895 60" class="font"><defs data-v-423bf9ae=""><linearGradient data-v-423bf9ae="" gradientTransform="rotate(25)" id="e1cc4860-4c88-469c-ae32-f4ba3856f3c8" x1="0%" y1="0%" x2="100%" y2="0%"><stop data-v-423bf9ae="" offset="0%" style="stop-color: rgb(0, 145, 255); stop-opacity: 1;"></stop><stop data-v-423bf9ae="" offset="100%" style="stop-color: rgb(174, 238, 255); stop-opacity: 1;"></stop></linearGradient></defs><g data-v-423bf9ae="" id="871e3fb5-e753-4f89-b49c-cde8d83bdaf6" fill="url(#e1cc4860-4c88-469c-ae32-f4ba3856f3c8)" transform="matrix(5.52486108277848,0,0,5.52486108277848,-2.3236924832644945,-22.209941447391124)"><path d="M0.71 13.02L0.71 13.02L0.52 13.02Q0.39 13.02 0.43 12.89L0.43 12.89L3.37 4.14Q3.42 4.02 3.51 4.02L3.51 4.02L3.85 4.02Q3.95 4.02 3.99 4.14L3.99 4.14L6.93 12.89Q6.97 13.02 6.85 13.02L6.85 13.02L6.64 13.02Q6.54 13.02 6.50 12.89L6.50 12.89L5.64 10.46L1.72 10.46L0.87 12.89Q0.81 13.02 0.71 13.02ZM3.71 4.55L3.65 4.55L1.88 10.04L5.49 10.04L3.71 4.55ZM9.11 4.14L9.11 4.14L9.11 12.89Q9.11 13.02 9.00 13.02L9.00 13.02L8.81 13.02Q8.69 13.02 8.69 12.89L8.69 12.89L8.69 4.14Q8.69 4.02 8.81 4.02L8.81 4.02L9.00 4.02Q9.11 4.02 9.11 4.14ZM12.01 13.02L12.01 13.02L11.82 13.02Q11.70 13.02 11.70 12.89L11.70 12.89L11.70 4.14Q11.70 4.02 11.82 4.02L11.82 4.02L14.98 4.02Q15.83 4.02 16.34 4.54Q16.86 5.05 16.86 5.92L16.86 5.92L16.86 7.64Q16.86 8.51 16.34 9.03Q15.83 9.55 14.98 9.55L14.98 9.55L12.25 9.55Q12.12 9.55 12.12 9.66L12.12 9.66L12.12 12.89Q12.12 13.02 12.01 13.02ZM12.25 9.16L12.25 9.16L14.98 9.16Q15.68 9.16 16.06 8.75Q16.44 8.34 16.44 7.63L16.44 7.63L16.44 5.94Q16.44 5.22 16.06 4.82Q15.68 4.41 14.98 4.41L14.98 4.41L12.25 4.41Q12.12 4.41 12.12 4.52L12.12 4.52L12.12 9.04Q12.12 9.16 12.25 9.16ZM24.68 12.63L24.68 12.63L26.43 12.63Q27.13 12.63 27.51 12.22Q27.89 11.82 27.89 11.10L27.89 11.10L27.89 5.94Q27.89 5.22 27.51 4.82Q27.13 4.41 26.43 4.41L26.43 4.41L24.68 4.41Q23.98 4.41 23.60 4.82Q23.23 5.22 23.23 5.94L23.23 5.94L23.23 11.10Q23.23 11.82 23.60 12.22Q23.98 12.63 24.68 12.63ZM27.45 14.88L27.45 14.88L27.23 14.88Q27.10 14.88 27.02 14.76L27.02 14.76L25.94 13.02L24.68 13.02Q23.83 13.02 23.32 12.50Q22.81 11.98 22.81 11.12L22.81 11.12L22.81 5.92Q22.81 5.05 23.32 4.54Q23.83 4.02 24.68 4.02L24.68 4.02L26.43 4.02Q27.29 4.02 27.80 4.54Q28.31 5.05 28.31 5.92L28.31 5.92L28.31 11.12Q28.31 11.98 27.80 12.50Q27.29 13.02 26.43 13.02L26.43 13.02L27.51 14.76Q27.59 14.88 27.45 14.88ZM30.14 13.02L30.14 13.02L29.86 13.02Q29.74 13.02 29.82 12.89L29.82 12.89L31.92 9.38L29.95 6.01Q29.86 5.88 29.99 5.88L29.99 5.88L30.25 5.88Q30.35 5.88 30.44 6.01L30.44 6.01L32.20 9.06L32.26 9.06L33.98 6.01Q34.06 5.88 34.16 5.88L34.16 5.88L34.43 5.88Q34.55 5.88 34.47 6.01L34.47 6.01L32.52 9.35L34.64 12.89Q34.72 13.02 34.59 13.02L34.59 13.02L34.27 13.02Q34.22 13.02 34.13 12.89L34.13 12.89L32.26 9.66L32.20 9.66L30.32 12.89Q30.24 13.02 30.14 13.02Z"></path></g></svg>