<svg xmlns="http://www.w3.org/2000/svg" viewBox="25.42 0.49 100.16 100.04" class="iconAbove">
  <defs>
    <linearGradient data-v-423bf9ae="" gradientTransform="rotate(25)" id="3c7c298f-440a-41ff-8bd7-95d85ebd07db" x1="0%" y1="0%" x2="100%" y2="0%">
      <stop data-v-423bf9ae="" offset="0%" style="stop-color: rgb(0, 73, 255); stop-opacity: 1;"></stop>
      <stop data-v-423bf9ae="" offset="100%" style="stop-color: rgb(123, 243, 252); stop-opacity: 1;"></stop>
    </linearGradient>
  </defs>
  <g data-v-423bf9ae="" id="d7d0ad72-3c80-4110-804b-b23b1914e765" transform="matrix(1.054284159342448,0,0,1.054284159342448,22.785792084647014,-2.1546724641907815)" stroke="none" fill="url(#3c7c298f-440a-41ff-8bd7-95d85ebd07db)">
    <path d="M89.5 87.6s4.4 1.6 8-1.6c-1.5-.8-3.1-1.8-4.7-3-2.7 1.2-3.6.8-3.6.8.6.1 1.7-.4 2.9-1.2-1.3-1-2.6-2.2-3.9-3.4l-.8-.8c-2.8 1.3-3.8.6-3.8.6 1.2-.1 2.4-.6 3.2-1.1-.8-.8-1.5-1.7-2.2-2.5-1.9.3-6.3.8-8.7-1.7L51.5 47.8l2.7-2.8 1.3-1.4L80.9 17s.3.8.7 1c.3.2.6.1.8.3.3.3.4.7.4.7l.4-.2.4-.6c.1-.2 0-.6.1-.8 0-.3.1-.7.4-.9.2-.2.5-.1.6 0s.2.3.2.4l.2 1.1s.1.6.1 1.1c.1.5.2.4.2.4s.7-.4.8-1c.1-.4.5-.7.8-1 .2-.2.2-.5.4-.6.1-.1.4-.3.4-.3s.3-.7.5-1.1.9-.8.9-.8.1-.5.2-.9.7-1.1.7-1.1-.1-.3 0-.5.3-.5.3-.5-.1-.2 0-.7c.1-.4.7-.9.7-.9s-.2-.2 0-.8.6-.9.6-.9 0-.3-.1-.4c0-.1.4-.9.4-.9v-.5c0-.2.5-.9.5-.9v-.6c0-.1.3-.7.3-.7v-.8c0-.3.3-.8.3-1-.1-.2-.6 0-.8.1s-.6 0-.8.1c0 0-.6.2-.9.4s-.5 0-.5 0-.5.4-.8.5c-.2.1-.6 0-.6 0l-.6.3c-.3.1-.6.1-.6.1s-.6.6-1 .8c-.3.2-.8-.2-.8-.2s-.4.4-.7.6c-.1 0-.8.1-.7 0-.1.2-.3.3-.5.4-.4.2-.5-.1-.7.2s-.7.6-1.1.7c-.2 0-.4 0-.5.1-.2.1-.3.3-.4.5-.2.3-.7.4-1 .6l-.6.4s-.3.5-.6.8-.7.3-1 .7l-.7.7c.1.2.4.2.7.3l.8.3.8.3c.5.2.6.6 0 1-.3.2-.5.1-.8.2 0 0-.7.2-1.1.3s-.2.4-.2.4.3.2.6.5v.7s1 .5 1.2.7c.1.1-.2-.1.2.4L54 42.1l-1.3 1.4-2.7 2.8-2.7-2.8-1.3-1.4-25.4-26.5s.7-.3 1-.7c.2-.3.1-.6.3-.9s.6-.4.6-.4l-.2-.4-.6-.4c-.2-.1-.6 0-.8-.1-.2 0-.7-.1-.9-.4-.2-.2-.1-.5 0-.6s.3-.2.4-.2l1-.2s.6-.1 1.1-.1c.5-.2.5-.4.5-.4s-.4-.7-1-.8c-.4-.1-.6-.5-.9-.8-.2-.2-.4-.3-.6-.5-.1-.1-.3-.4-.3-.5 0 0-.7-.3-1-.5s-.8-.9-.8-.9-.5-.1-.8-.2c-.4-.1-1-.8-1-.8s-.2.1-.4 0-.5-.4-.5-.4-.2.1-.6 0-.9-.7-.9-.7-.2.2-.8 0-.9-.6-.9-.6-.3 0-.4.1c-.1 0-.8-.5-.8-.5s-.5.1-.7.1-.8-.5-.8-.5h-.6c-.2.1-.8-.2-.8-.2h-.7c-.2 0-.8-.4-1-.3s0 .6.1.8c.1.3 0 .7.1.9 0 0 .2.6.4 1 .2.3 0 .5 0 .5s.4.5.4.8c.1.2 0 .7 0 .7s.1.3.2.5c.2.3.1.7.1.7s.6.7.7 1-.2.8-.2.8.5.5.7.9c0 .1.1.8 0 .8.2.1.3.3.4.5.2.4-.1.5.2.7s.5.8.6 1.1c0 .2 0 .4.1.5.1.2.3.3.5.4.3.2.4.7.5 1.1l.5.5s.5.4.8.7.3.7.7 1.1c.2.3.5.5.7.7.2-.1.2-.4.3-.7l.3-.8.3-.9c.2-.5.6-.6.9 0 .2.3.1.6.2.9 0 0 .2.7.3 1.1s.4.3.4.3.2-.4.4-.6c.3-.2.7-.3.7-.3s.5-1 .7-1.2c.1-.1-.1.2.4-.2l25.5 26.6 1.3 1.4 2.7 2.8L24 73.5c-2.4 2.5-6.7 2.1-8.7 1.7-.5.6-.9 1.2-1.4 1.8.8.4 1.7.8 2.7.8 0 0-.8.6-3.1-.3-.5.6-1.1 1.1-1.6 1.7-.2.2-.3.3-.5.4.6.3 1.2.5 1.9.7 0 0-.8.1-2.3-.3-1.2 1.2-2.5 2.2-3.8 3.1 1 .6 2 1 2.5.9 0 0-.8.5-3.2-.4-1.3.9-2.8 1.7-4 2.3 3.7 3.3 8 1.5 8 1.5L6 92.1l1.8-.3-.3 1.9L12 89s-1.5 4.6 1.5 8.4c.8-1.6 1.7-3.2 2.9-4.9-1.2-2.8-.7-3.7-.7-3.7-.1.6.4 1.7 1.2 3 1-1.4 2.1-2.7 3.3-4.1l.8-.8c-1.3-2.9-.6-3.9-.6-3.9.1 1.3.6 2.5 1.1 3.4.8-.8 1.6-1.6 2.4-2.3-.3-2-.7-6.6 1.7-9.1L50 49.4 74.5 75c2.4 2.5 2 7 1.6 9.1.6.5 1.1 1 1.7 1.5.4-.8.7-1.8.8-2.8 0 0 .6.9-.3 3.2.5.5 1.1 1.1 1.6 1.7.1.2.3.3.4.5.2-.6.5-1.3.7-2 0 0 .1.9-.3 2.4q1.65 1.95 3 3.9c.6-1.1 1-2.1.9-2.6 0 0 .5.8-.4 3.3.9 1.4 1.6 2.9 2.2 4.2 3.1-3.9 1.5-8.4 1.5-8.4l4.5 4.7-.3-1.9 1.8.3z"></path>
  </g>
</svg>
