<svg data-v-423bf9ae="" xmlns="http://www.w3.org/2000/svg" viewBox="0 0 136.35814248814575 163" class="iconAbove"><g data-v-423bf9ae="" id="d5867873-a008-40aa-9479-35a1afd06777" fill="#FFFFFF" transform="matrix(6.036216979508284,0,0,6.036216979508284,-8.81287588435245,75.35412383335591)"><path d="M1.96 14.35L1.96 9.94L4.90 9.94C6.55 9.94 7.42 8.89 7.42 7.25C7.42 5.61 6.55 4.58 4.90 4.58L1.46 4.58L1.46 14.35ZM1.96 5.04L4.90 5.04C6.23 5.04 6.87 5.92 6.87 6.94L6.87 7.56C6.87 8.60 6.23 9.48 4.90 9.48L1.96 9.48ZM12.70 14.52C14.10 14.52 15.06 13.79 15.48 12.67L15.09 12.46C14.67 13.54 13.85 14.08 12.70 14.08C11.06 14.08 10.14 12.94 10.14 11.14L10.14 10.78L15.62 10.78L15.62 10.58C15.62 8.40 14.56 6.96 12.63 6.96C10.77 6.96 9.60 8.29 9.60 10.74C9.60 13.19 10.77 14.52 12.70 14.52ZM12.63 7.38C14.20 7.38 15.11 8.51 15.11 10.32L15.11 10.39L10.14 10.39L10.14 10.33C10.14 8.53 11.06 7.38 12.63 7.38ZM18.52 14.35L20.97 11.07L21 11.07L23.45 14.35L24.05 14.35L21.29 10.70L24.00 7.13L23.44 7.13L21.03 10.33L21 10.33L18.59 7.13L18.00 7.13L20.71 10.71L17.95 14.35Z"></path></g><defs data-v-423bf9ae=""><linearGradient data-v-423bf9ae="" gradientTransform="rotate(25)" id="ec1474e5-985a-42d6-b652-dfb769af63bd" x1="0%" y1="0%" x2="100%" y2="0%"><stop data-v-423bf9ae="" offset="0%" style="stop-color: rgb(0, 73, 255); stop-opacity: 1;"></stop><stop data-v-423bf9ae="" offset="100%" style="stop-color: rgb(123, 243, 252); stop-opacity: 1;"></stop></linearGradient></defs><g data-v-423bf9ae="" id="f1fed57c-8134-4f1f-940a-aa540d23dc84" transform="matrix(3.6465297552881184,0,0,3.6465297552881184,20.016059393078997,-2.3527649486652464)" stroke="none" fill="url(#ec1474e5-985a-42d6-b652-dfb769af63bd)"><path d="M22.075 25.57 9.689 19.787 4.33 15.483.256 13.804l4.354-1.557 2.435.938 1.7.655 2.854 1.1-1.267-2.124L26.202.889l-2.16 7.369-8.604 7.177 7.126-3.853-5.745 8.716z"></path></g></svg>