<svg data-v-423bf9ae="" xmlns="http://www.w3.org/2000/svg" viewBox="0 0 149.78220918040438 163" class="iconAbove"><g data-v-423bf9ae="" id="262d178d-8231-47e9-ad74-e7d1fc1f5d29" fill="#000000" transform="matrix(5.4446458718365625,0,0,5.4446458718365625,-7.949182118924853,57.10163173149509)"><path d="M7.34 17.18L6.34 17.18L4.79 13.89L2.37 13.89L2.37 17.18L1.46 17.18L1.46 8.43L4.76 8.43Q5.60 8.43 6.05 8.69Q6.51 8.95 6.70 9.55Q6.89 10.16 6.89 11.28L6.89 11.28Q6.89 12.45 6.61 13.04Q6.33 13.64 5.68 13.80L5.68 13.80L7.34 17.18ZM2.37 9.18L2.37 13.10L4.83 13.10Q5.46 13.10 5.70 12.98Q5.94 12.85 5.94 12.52L5.94 12.52L5.94 9.77Q5.94 9.44 5.70 9.31Q5.46 9.18 4.83 9.18L4.83 9.18L2.37 9.18ZM11.48 16.52Q12.04 16.52 12.57 16.45Q13.10 16.38 13.89 16.18L13.89 16.18L14.01 16.90Q13.57 17.08 12.81 17.19Q12.05 17.29 11.24 17.29L11.24 17.29Q10.21 17.29 9.72 17.00Q9.23 16.72 9.05 15.97Q8.88 15.23 8.88 13.68L8.88 13.68Q8.88 12.21 9.10 11.45Q9.32 10.70 9.89 10.38Q10.46 10.07 11.56 10.07L11.56 10.07Q12.64 10.07 13.20 10.23Q13.75 10.40 13.97 10.82Q14.20 11.24 14.20 12.07L14.20 12.07Q14.20 13.15 13.93 13.57Q13.66 14 12.82 14.13Q11.97 14.27 9.81 14.27L9.81 14.27L9.81 16.32Q10.46 16.52 11.48 16.52L11.48 16.52ZM11.03 10.91Q10.32 10.91 10.07 11.10Q9.81 11.28 9.81 11.82L9.81 11.82L9.81 13.52L12.12 13.52Q12.85 13.52 13.11 13.34Q13.37 13.16 13.37 12.63L13.37 12.63L13.37 10.91L11.03 10.91ZM18.63 16.37Q19.85 16.49 20.38 16.63Q20.90 16.76 21.08 17.02Q21.27 17.28 21.27 17.82L21.27 17.82Q21.27 18.45 21.02 18.80Q20.78 19.15 20.22 19.30Q19.66 19.45 18.63 19.45L18.63 19.45Q17.91 19.45 17.23 19.33Q16.56 19.22 16.16 19.04L16.16 19.04L16.28 18.28Q17.04 18.47 17.51 18.54Q17.99 18.61 18.49 18.61L18.49 18.61Q19.17 18.61 19.62 18.56Q20.08 18.52 20.47 18.42L20.47 18.42L20.47 17.21Q19.00 17.12 18.39 16.99Q17.78 16.86 17.78 16.63L17.78 16.63L18.13 15.11Q17.32 15.06 16.87 14.81Q16.42 14.56 16.24 14.04Q16.06 13.51 16.06 12.56L16.06 12.56Q16.06 11.54 16.28 10.98Q16.51 10.43 17.05 10.20Q17.60 9.97 18.62 9.97L18.62 9.97Q19.81 9.97 20.34 10.28L20.34 10.28L21.28 9.56L21.76 10.05L20.94 10.92Q21.20 11.47 21.20 12.56L21.20 12.56Q21.20 13.57 20.98 14.11Q20.76 14.64 20.23 14.88Q19.70 15.11 18.72 15.12L18.72 15.12L18.63 16.37ZM17.00 11.73L17.00 14.38L19.04 14.38Q19.73 14.38 19.98 14.15Q20.24 13.93 20.24 13.36L20.24 13.36L20.24 10.71L18.21 10.71Q17.53 10.71 17.26 10.93Q17.00 11.16 17.00 11.73L17.00 11.73ZM28.97 17.18L27.94 17.18L25.61 13.43L23.37 17.18L22.37 17.18L25.13 12.66L22.48 8.43L23.51 8.43L25.73 12.00L27.86 8.43L28.85 8.43L26.22 12.78L28.97 17.18Z"></path></g><defs data-v-423bf9ae=""><linearGradient data-v-423bf9ae="" gradientTransform="rotate(25)" id="a65f7b2b-d677-48ef-a234-5f6ce03e9234" x1="0%" y1="0%" x2="100%" y2="0%"><stop data-v-423bf9ae="" offset="0%" style="stop-color: rgb(0, 73, 255); stop-opacity: 1;"></stop><stop data-v-423bf9ae="" offset="100%" style="stop-color: rgb(123, 243, 252); stop-opacity: 1;"></stop></linearGradient></defs><g data-v-423bf9ae="" id="ecf50c7b-c062-403e-95db-0417b86690f2" transform="matrix(3.6465297552881184,0,0,3.6465297552881184,27.016059393078997,-2.3527649486652464)" stroke="none" fill="url(#a65f7b2b-d677-48ef-a234-5f6ce03e9234)"><path d="M22.075 25.57 9.689 19.787 4.33 15.483.256 13.804l4.354-1.557 2.435.938 1.7.655 2.854 1.1-1.267-2.124L26.202.889l-2.16 7.369-8.604 7.177 7.126-3.853-5.745 8.716z"></path></g></svg>