<?xml version="1.0" encoding="UTF-8"?>
<svg xmlns="http://www.w3.org/2000/svg" viewBox="0 0 600 320" width="100%" height="100%"><defs><linearGradient id="ascii-grad" x1="0%" y1="0%" x2="100%" y2="100%"><stop offset="0%" stop-color="#0049FF" /><stop offset="100%" stop-color="#7BF3FC" /></linearGradient></defs><g id="logo-body"><rect x="204" y="44" width="32" height="32" rx="5" ry="5" fill="url(#ascii-grad)" /><rect x="244" y="44" width="32" height="32" rx="5" ry="5" fill="url(#ascii-grad)" /><rect x="284" y="44" width="32" height="32" rx="5" ry="5" fill="url(#ascii-grad)" /><rect x="324" y="44" width="32" height="32" rx="5" ry="5" fill="url(#ascii-grad)" /><rect x="364" y="44" width="32" height="32" rx="5" ry="5" fill="url(#ascii-grad)" /><rect x="164" y="84" width="32" height="32" rx="5" ry="5" fill="url(#ascii-grad)" /><rect x="204" y="84" width="32" height="32" rx="5" ry="5" fill="url(#ascii-grad)" /><rect x="244" y="84" width="32" height="32" rx="5" ry="5" fill="url(#ascii-grad)" /><rect x="284" y="84" width="32" height="32" rx="5" ry="5" fill="url(#ascii-grad)" /><rect x="324" y="84" width="32" height="32" rx="5" ry="5" fill="url(#ascii-grad)" /><rect x="364" y="84" width="32" height="32" rx="5" ry="5" fill="url(#ascii-grad)" /><rect x="404" y="84" width="32" height="32" rx="5" ry="5" fill="url(#ascii-grad)" /><rect x="124" y="124" width="32" height="32" rx="5" ry="5" fill="url(#ascii-grad)" /><rect x="164" y="124" width="32" height="32" rx="5" ry="5" fill="url(#ascii-grad)" /><rect x="204" y="124" width="16.0" height="32" rx="5" ry="5" fill="url(#ascii-grad)" /><rect x="220.0" y="124" width="16.0" height="32" rx="5" ry="5" fill="#7BF3FC" /><rect x="244" y="124" width="32" height="32" rx="5" ry="5" fill="url(#ascii-grad)" /><rect x="284" y="124" width="32" height="32" rx="5" ry="5" fill="url(#ascii-grad)" /><rect x="324" y="124" width="32" height="32" rx="5" ry="5" fill="url(#ascii-grad)" /><rect x="364" y="124" width="16.0" height="32" rx="5" ry="5" fill="#7BF3FC" /><rect x="380.0" y="124" width="16.0" height="32" rx="5" ry="5" fill="url(#ascii-grad)" /><rect x="404" y="124" width="32" height="32" rx="5" ry="5" fill="url(#ascii-grad)" /><rect x="444" y="124" width="32" height="32" rx="5" ry="5" fill="url(#ascii-grad)" /><rect x="84" y="164" width="32" height="32" rx="5" ry="5" fill="url(#ascii-grad)" /><rect x="124" y="164" width="32" height="32" rx="5" ry="5" fill="url(#ascii-grad)" /><rect x="164" y="164" width="32" height="32" rx="5" ry="5" fill="url(#ascii-grad)" /><rect x="204" y="164" width="32" height="32" rx="5" ry="5" fill="url(#ascii-grad)" /><rect x="244" y="164" width="32" height="32" rx="5" ry="5" fill="url(#ascii-grad)" /><rect x="284" y="164" width="32" height="32" rx="5" ry="5" fill="url(#ascii-grad)" /><rect x="324" y="164" width="32" height="32" rx="5" ry="5" fill="url(#ascii-grad)" /><rect x="364" y="164" width="32" height="32" rx="5" ry="5" fill="url(#ascii-grad)" /><rect x="404" y="164" width="32" height="32" rx="5" ry="5" fill="url(#ascii-grad)" /><rect x="444" y="164" width="32" height="32" rx="5" ry="5" fill="url(#ascii-grad)" /><rect x="484" y="164" width="32" height="32" rx="5" ry="5" fill="url(#ascii-grad)" /><rect x="124" y="204" width="32" height="32" rx="5" ry="5" fill="url(#ascii-grad)" /><rect x="164" y="204" width="32" height="32" rx="5" ry="5" fill="url(#ascii-grad)" /><rect x="204" y="204" width="32" height="32" rx="5" ry="5" fill="url(#ascii-grad)" /><rect x="244" y="204" width="32" height="16.0" rx="5" ry="5" fill="url(#ascii-grad)" /><rect x="284" y="204" width="32" height="16.0" rx="5" ry="5" fill="url(#ascii-grad)" /><rect x="324" y="204" width="32" height="16.0" rx="5" ry="5" fill="url(#ascii-grad)" /><rect x="364" y="204" width="32" height="32" rx="5" ry="5" fill="url(#ascii-grad)" /><rect x="404" y="204" width="32" height="32" rx="5" ry="5" fill="url(#ascii-grad)" /><rect x="444" y="204" width="32" height="32" rx="5" ry="5" fill="url(#ascii-grad)" /><rect x="164" y="244" width="32" height="32" rx="5" ry="5" fill="url(#ascii-grad)" /><rect x="404" y="244" width="32" height="32" rx="5" ry="5" fill="url(#ascii-grad)" /></g></svg>