<svg data-v-423bf9ae="" xmlns="http://www.w3.org/2000/svg" viewBox="0 0 149.78220918040438 174" class="iconAbove"><g data-v-423bf9ae="" id="dfc5aa26-8f83-43c7-af02-00991f40b30e" fill="#000000" transform="matrix(5.4446458718365625,0,0,5.4446458718365625,-7.949182118924853,67.13799342583103)"><path d="M7.34 17.18L6.34 17.18L4.79 13.89L2.37 13.89L2.37 17.18L1.46 17.18L1.46 8.43L4.76 8.43Q5.60 8.43 6.05 8.69Q6.51 8.95 6.70 9.55Q6.89 10.16 6.89 11.28L6.89 11.28Q6.89 12.45 6.61 13.04Q6.33 13.64 5.68 13.80L5.68 13.80L7.34 17.18ZM2.37 9.18L2.37 13.10L4.83 13.10Q5.46 13.10 5.70 12.98Q5.94 12.85 5.94 12.52L5.94 12.52L5.94 9.77Q5.94 9.44 5.70 9.31Q5.46 9.18 4.83 9.18L4.83 9.18L2.37 9.18ZM11.48 16.52Q12.04 16.52 12.57 16.45Q13.10 16.38 13.89 16.18L13.89 16.18L14.01 16.90Q13.57 17.08 12.81 17.19Q12.05 17.29 11.24 17.29L11.24 17.29Q10.21 17.29 9.72 17.00Q9.23 16.72 9.05 15.97Q8.88 15.23 8.88 13.68L8.88 13.68Q8.88 12.21 9.10 11.45Q9.32 10.70 9.89 10.38Q10.46 10.07 11.56 10.07L11.56 10.07Q12.64 10.07 13.20 10.23Q13.75 10.40 13.97 10.82Q14.20 11.24 14.20 12.07L14.20 12.07Q14.20 13.15 13.93 13.57Q13.66 14 12.82 14.13Q11.97 14.27 9.81 14.27L9.81 14.27L9.81 16.32Q10.46 16.52 11.48 16.52L11.48 16.52ZM11.03 10.91Q10.32 10.91 10.07 11.10Q9.81 11.28 9.81 11.82L9.81 11.82L9.81 13.52L12.12 13.52Q12.85 13.52 13.11 13.34Q13.37 13.16 13.37 12.63L13.37 12.63L13.37 10.91L11.03 10.91ZM18.63 16.37Q19.85 16.49 20.38 16.63Q20.90 16.76 21.08 17.02Q21.27 17.28 21.27 17.82L21.27 17.82Q21.27 18.45 21.02 18.80Q20.78 19.15 20.22 19.30Q19.66 19.45 18.63 19.45L18.63 19.45Q17.91 19.45 17.23 19.33Q16.56 19.22 16.16 19.04L16.16 19.04L16.28 18.28Q17.04 18.47 17.51 18.54Q17.99 18.61 18.49 18.61L18.49 18.61Q19.17 18.61 19.62 18.56Q20.08 18.52 20.47 18.42L20.47 18.42L20.47 17.21Q19.00 17.12 18.39 16.99Q17.78 16.86 17.78 16.63L17.78 16.63L18.13 15.11Q17.32 15.06 16.87 14.81Q16.42 14.56 16.24 14.04Q16.06 13.51 16.06 12.56L16.06 12.56Q16.06 11.54 16.28 10.98Q16.51 10.43 17.05 10.20Q17.60 9.97 18.62 9.97L18.62 9.97Q19.81 9.97 20.34 10.28L20.34 10.28L21.28 9.56L21.76 10.05L20.94 10.92Q21.20 11.47 21.20 12.56L21.20 12.56Q21.20 13.57 20.98 14.11Q20.76 14.64 20.23 14.88Q19.70 15.11 18.72 15.12L18.72 15.12L18.63 16.37ZM17.00 11.73L17.00 14.38L19.04 14.38Q19.73 14.38 19.98 14.15Q20.24 13.93 20.24 13.36L20.24 13.36L20.24 10.71L18.21 10.71Q17.53 10.71 17.26 10.93Q17.00 11.16 17.00 11.73L17.00 11.73ZM28.97 17.18L27.94 17.18L25.61 13.43L23.37 17.18L22.37 17.18L25.13 12.66L22.48 8.43L23.51 8.43L25.73 12.00L27.86 8.43L28.85 8.43L26.22 12.78L28.97 17.18Z"></path></g><defs data-v-423bf9ae=""><linearGradient data-v-423bf9ae="" gradientTransform="rotate(25)" id="a0de5b72-d2c7-46ff-86c3-0aef8fdbaac6" x1="0%" y1="0%" x2="100%" y2="0%"><stop data-v-423bf9ae="" offset="0%" style="stop-color: rgb(0, 73, 255); stop-opacity: 1;"></stop><stop data-v-423bf9ae="" offset="100%" style="stop-color: rgb(123, 243, 252); stop-opacity: 1;"></stop></linearGradient></defs><g data-v-423bf9ae="" id="f296c3ed-569d-46aa-8fd2-3c89c44f7905" transform="matrix(1.054284159342448,0,0,1.054284159342448,22.785792084647014,-2.1546724641907815)" stroke="none" fill="url(#a0de5b72-d2c7-46ff-86c3-0aef8fdbaac6)"><path d="M89.5 87.6s4.4 1.6 8-1.6c-1.5-.8-3.1-1.8-4.7-3-2.7 1.2-3.6.8-3.6.8.6.1 1.7-.4 2.9-1.2-1.3-1-2.6-2.2-3.9-3.4l-.8-.8c-2.8 1.3-3.8.6-3.8.6 1.2-.1 2.4-.6 3.2-1.1-.8-.8-1.5-1.7-2.2-2.5-1.9.3-6.3.8-8.7-1.7L51.5 47.8l2.7-2.8 1.3-1.4L80.9 17s.3.8.7 1c.3.2.6.1.8.3.3.3.4.7.4.7l.4-.2.4-.6c.1-.2 0-.6.1-.8 0-.3.1-.7.4-.9.2-.2.5-.1.6 0s.2.3.2.4l.2 1.1s.1.6.1 1.1c.1.5.2.4.2.4s.7-.4.8-1c.1-.4.5-.7.8-1 .2-.2.2-.5.4-.6.1-.1.4-.3.4-.3s.3-.7.5-1.1.9-.8.9-.8.1-.5.2-.9.7-1.1.7-1.1-.1-.3 0-.5.3-.5.3-.5-.1-.2 0-.7c.1-.4.7-.9.7-.9s-.2-.2 0-.8.6-.9.6-.9 0-.3-.1-.4c0-.1.4-.9.4-.9v-.5c0-.2.5-.9.5-.9v-.6c0-.1.3-.7.3-.7v-.8c0-.3.3-.8.3-1-.1-.2-.6 0-.8.1s-.6 0-.8.1c0 0-.6.2-.9.4s-.5 0-.5 0-.5.4-.8.5c-.2.1-.6 0-.6 0l-.6.3c-.3.1-.6.1-.6.1s-.6.6-1 .8c-.3.2-.8-.2-.8-.2s-.4.4-.7.6c-.1 0-.8.1-.7 0-.1.2-.3.3-.5.4-.4.2-.5-.1-.7.2s-.7.6-1.1.7c-.2 0-.4 0-.5.1-.2.1-.3.3-.4.5-.2.3-.7.4-1 .6l-.6.4s-.3.5-.6.8-.7.3-1 .7l-.7.7c.1.2.4.2.7.3l.8.3.8.3c.5.2.6.6 0 1-.3.2-.5.1-.8.2 0 0-.7.2-1.1.3s-.2.4-.2.4.3.2.6.5v.7s1 .5 1.2.7c.1.1-.2-.1.2.4L54 42.1l-1.3 1.4-2.7 2.8-2.7-2.8-1.3-1.4-25.4-26.5s.7-.3 1-.7c.2-.3.1-.6.3-.9s.6-.4.6-.4l-.2-.4-.6-.4c-.2-.1-.6 0-.8-.1-.2 0-.7-.1-.9-.4-.2-.2-.1-.5 0-.6s.3-.2.4-.2l1-.2s.6-.1 1.1-.1c.5-.2.5-.4.5-.4s-.4-.7-1-.8c-.4-.1-.6-.5-.9-.8-.2-.2-.4-.3-.6-.5-.1-.1-.3-.4-.3-.5 0 0-.7-.3-1-.5s-.8-.9-.8-.9-.5-.1-.8-.2c-.4-.1-1-.8-1-.8s-.2.1-.4 0-.5-.4-.5-.4-.2.1-.6 0-.9-.7-.9-.7-.2.2-.8 0-.9-.6-.9-.6-.3 0-.4.1c-.1 0-.8-.5-.8-.5s-.5.1-.7.1-.8-.5-.8-.5h-.6c-.2.1-.8-.2-.8-.2h-.7c-.2 0-.8-.4-1-.3s0 .6.1.8c.1.3 0 .7.1.9 0 0 .2.6.4 1 .2.3 0 .5 0 .5s.4.5.4.8c.1.2 0 .7 0 .7s.1.3.2.5c.2.3.1.7.1.7s.6.7.7 1-.2.8-.2.8.5.5.7.9c0 .1.1.8 0 .8.2.1.3.3.4.5.2.4-.1.5.2.7s.5.8.6 1.1c0 .2 0 .4.1.5.1.2.3.3.5.4.3.2.4.7.5 1.1l.5.5s.5.4.8.7.3.7.7 1.1c.2.3.5.5.7.7.2-.1.2-.4.3-.7l.3-.8.3-.9c.2-.5.6-.6.9 0 .2.3.1.6.2.9 0 0 .2.7.3 1.1s.4.3.4.3.2-.4.4-.6c.3-.2.7-.3.7-.3s.5-1 .7-1.2c.1-.1-.1.2.4-.2l25.5 26.6 1.3 1.4 2.7 2.8L24 73.5c-2.4 2.5-6.7 2.1-8.7 1.7-.5.6-.9 1.2-1.4 1.8.8.4 1.7.8 2.7.8 0 0-.8.6-3.1-.3-.5.6-1.1 1.1-1.6 1.7-.2.2-.3.3-.5.4.6.3 1.2.5 1.9.7 0 0-.8.1-2.3-.3-1.2 1.2-2.5 2.2-3.8 3.1 1 .6 2 1 2.5.9 0 0-.8.5-3.2-.4-1.3.9-2.8 1.7-4 2.3 3.7 3.3 8 1.5 8 1.5L6 92.1l1.8-.3-.3 1.9L12 89s-1.5 4.6 1.5 8.4c.8-1.6 1.7-3.2 2.9-4.9-1.2-2.8-.7-3.7-.7-3.7-.1.6.4 1.7 1.2 3 1-1.4 2.1-2.7 3.3-4.1l.8-.8c-1.3-2.9-.6-3.9-.6-3.9.1 1.3.6 2.5 1.1 3.4.8-.8 1.6-1.6 2.4-2.3-.3-2-.7-6.6 1.7-9.1L50 49.4 74.5 75c2.4 2.5 2 7 1.6 9.1.6.5 1.1 1 1.7 1.5.4-.8.7-1.8.8-2.8 0 0 .6.9-.3 3.2.5.5 1.1 1.1 1.6 1.7.1.2.3.3.4.5.2-.6.5-1.3.7-2 0 0 .1.9-.3 2.4q1.65 1.95 3 3.9c.6-1.1 1-2.1.9-2.6 0 0 .5.8-.4 3.3.9 1.4 1.6 2.9 2.2 4.2 3.1-3.9 1.5-8.4 1.5-8.4l4.5 4.7-.3-1.9 1.8.3z"></path></g></svg>